<?xml version="1.0" encoding="UTF-8"?>
<svg id="Capa_1" data-name="Capa 1" xmlns="http://www.w3.org/2000/svg" viewBox="0 0 527 127">
  <defs>
    <style>
      .cls-1 {
        fill: #9fb500;
      }

      .cls-2 {
        fill: #060606;
      }
    </style>
  </defs>
  <path class="cls-1" d="M291,82c-.8,2.02-.74,4.62-2.96,6.54-1.91,1.66-3.85,1.14-5.52,2.48-.6.48-7.73,12.28-7.98,13.02-.71,2.11-1.03,7.26-.53,9.29.19.78,2.01.68,2.04,1.24.02.34-1.72,6.43-2.05,6.43h-20.5c-3.93,0,.51-9.96.54-11.46.01-.73-1.76-11.03-2.04-11.55-.1-.18-1.98,1.3-3.94-.48-2.17-1.97-1.96-5.87-3.55-7.58-1.46-1.58-3.19.58-5.04-.81-.88-.66-3.03-4.63-3.31-5.8-.41-1.69,3.28-2.3,4.88-3.8,1.08-1.01,2.31-1.81,1.97-3.52l-10,2.98c4.01-4.41.81-4.82-1.21-8.28-.68-1.17-3.14-8.39-3.79-3.23-.78,6.15-.75,22.85-.07,29.09.44,4.08,3.18,6.9,2.07,11.43h-24c-1.26-4.89,1.61-8.17,2.07-12.43,1.33-12.29,1.63-51.29-.02-63.12-.2-1.41-4.46-10.45-.55-10.45h22.5c1.98,0-.65,9.29-.25,10.69,2.58,8.92,14.93,21.29,18.34,30.72,4.47,1.86,7.79,4.63,9.76,9.24.98,2.3,2.41,12.96,4.78,13.43.8.16,5.08-.85,5.32-1.15.37-.46-.42-8.69.6-11.88,1.28-4.01,5.2-8.18,9.54-8.71,1.91-5.74,20.5-29.92,19.75-33.56-.12-.57-4.32-8.77-.33-8.77h20c.36,0,1.61,1.03,2.34,1.16-1.35,28.17-1.44,56.62.16,84.84h-21.5c-3.63,0,.33-8.79.53-10.47,1.17-9.68-.93-21.59-.04-31.53-2.33-.49-1.6.27-2.24,1.28-.85,1.35-3.95,6.02-4.27,6.76-.93,2.13.19,3.73-1.48,7.95,1.83-1.78-4.15-7.73-7-5.99-1.26,1.1,5.28,7.66,7,5.99ZM216.01,25h-8.01v2.99h8.01v-2.99ZM313,75c1.92.29,2.68-.78,2.99-2.51.45-2.46.42-21.97-.17-23.82-.42-1.33-1.45-1.93-2.83-1.67v28ZM227.99,51c-.79-.59-2.58.55-2.88,1.65-.47,1.73,8.09,17.63,9.02,18.27.33.22,3.74-.79,3.85-.95,1.36-1.88-4.49-7.62-5.76-9.67-1.17-1.89-3.82-9-4.23-9.3ZM292.79,69.78c.75-.41,8.7-13.4,8.99-14.51.39-1.45.06-4.3-1.29-4.26-1.12.04-12.44,18.09-11.5,18.97.17.16,3.09.18,3.79-.21ZM275.99,79c1.61-2.83-5.33-7.81-5.99-4.48-.41,2.09,5.26,5.25,5.99,4.48ZM313,98c4.73-.13,1.84-3.3,2-5.5.18-2.52,2.09-11.61,0-13.01-.92-.62-2,.77-2,1.01v17.5ZM246,82.01c-1.11-1.03-8.19,2.75-5.99,4.99,1.52,1.55,7.3-3.77,5.99-4.99ZM258.99,101c-3.02-2.89-1.83,9.19-1.98,10h2.99c.43-.41-.13-9.16-1.01-10ZM260,115.01c-.68-.69-7.06-.14-6,2.99h6c-.12-.81.19-2.79,0-2.99Z"/>
  <path class="cls-2" d="M438,22l17.51,48.01,18.96-47.03c1.6-1.63,20.08-1.49,21.09-.04l7.44,85.06h-20l-3.01-50-17.47,49.02c-1.27,1.51-11.86,1.49-12.63.39-2.13-3.05-6.06-19.09-7.74-24.01-.48-1.42-1.74-1.33-2.29-2.78-2.78-7.35-2.58-15.34-6.37-22.61l-4.49,50.01h-20l8-86h21Z"/>
  <path class="cls-2" d="M357.76,21.26c64.26-8.71,63.69,92.2,4.75,88.72-51.97-3.06-50.45-82.53-4.75-88.72ZM360.74,40.24c-23.94,4.07-23.06,51.69,4.71,50.79,29.47-.95,27.61-56.28-4.71-50.79Z"/>
  <path class="cls-2" d="M112.5,22c26.57,3.57,29.78,41.27,5.47,50.54l27.03,35.46h-25c-6.54-10.07-13.74-20.75-21.17-30.33-.87-1.12-1-2.06-2.83-1.67v32h-20V22c11.39,1.1,25.45-1.49,36.5,0ZM96,61c5.79-2.02,14.98.35,17.33-7.16,3.94-12.58-6.58-17.01-17.33-15.84v23Z"/>
  <path class="cls-2" d="M46.5,22c1.17.2,8.41,3.39,9.82,4.18,17.17,9.63,15.33,38.34-1.65,46.99-1.88.96-9.55,3.83-11.17,3.83h-15.5v31H8V22c11.58,1.38,27.47-1.86,38.5,0ZM28,60c7.63.44,19.62.68,20.07-9.51.51-11.52-10.94-13.56-20.07-12.49v22Z"/>
  <path class="cls-2" d="M197,22v18h-28v16h27v18h-27v17h28v17h-47.5c-3.28,0-.53-12.12-.46-14.46.72-23.94-1.73-47.62-.04-71.54h48Z"/>
</svg>